G04 DipTrace 3.1.0.1*
G04 MSP430FR2311Breakout.gtl*
%MOIN*%
G04 #@! TF.FileFunction,Copper,L1,Top*
G04 #@! TF.Part,Single*
G04 #@! TA.AperFunction,Conductor*
%ADD11C,0.006*%
%ADD14R,0.070866X0.015748*%
%ADD15R,0.051181X0.059055*%
G04 #@! TA.AperFunction,ComponentPad*
%ADD16R,0.066929X0.066929*%
%ADD17C,0.066929*%
G04 #@! TA.AperFunction,ViaPad*
%ADD18C,0.03*%
%FSLAX26Y26*%
G04*
G70*
G90*
G75*
G01*
G04 Top*
%LPD*%
X487493Y877631D2*
D11*
X554062D1*
X593990Y837703D1*
X715100D1*
X718976Y841580D1*
X772848D1*
X800218Y868950D1*
Y1011642D1*
Y1081428D1*
X687541Y1287656D2*
X793969D1*
X800218Y1281407D1*
X687541Y1287656D2*
Y1324963D1*
X700228Y1337651D1*
X962701D1*
X993948Y1306404D1*
Y1068929D1*
X925205Y1000186D1*
X811673D1*
X800218Y1011642D1*
X487493Y777631D2*
Y793958D1*
X575241D1*
X593990Y812706D1*
X715693D1*
X718976Y815990D1*
X875021Y1281407D2*
X931454D1*
X937703Y1275157D1*
X875021Y1181417D2*
X912706D1*
X937703Y1206415D1*
Y1275157D1*
X875021Y1081428D2*
X912706D1*
X937703Y1106425D1*
Y1206415D1*
X487493Y977631D2*
X497807D1*
X612738Y862701D1*
X714507D1*
X718976Y867171D1*
X760942D1*
X775220Y881449D1*
Y1006436D1*
X768971Y1012685D1*
X731475D1*
X650234Y1093927D1*
Y1174070D1*
Y1193916D1*
X618987Y1225163D1*
Y1281407D1*
X612738Y1287656D1*
X650234Y1174070D2*
X792870D1*
X800218Y1181417D1*
X1193927Y1275231D2*
X1144005D1*
X1093937Y1225163D1*
Y987688D1*
X1050192Y943942D1*
X947323D1*
X1193927Y1175231D2*
X1181491D1*
X1118934Y1112675D1*
Y968940D1*
X1068940Y918945D1*
X947916D1*
X947323Y918352D1*
X1193927Y1075231D2*
X1137682Y1018987D1*
Y937693D1*
X1093937Y893948D1*
X948509D1*
X947323Y892761D1*
X1193927Y975231D2*
Y956441D1*
X1106436Y868950D1*
X949102D1*
X947323Y867171D1*
X1193927Y875231D2*
X1156462D1*
X1118934Y837703D1*
X951199D1*
X947323Y841580D1*
X1193927Y775231D2*
X1106415D1*
X1068940Y812706D1*
X950606D1*
X947323Y815990D1*
X1193927Y675231D2*
X1156420D1*
X1043942Y787709D1*
X950013D1*
X947323Y790399D1*
X1193927Y575231D2*
Y593979D1*
X1025194Y762711D1*
X949428D1*
X947331Y764808D1*
X487493Y577631D2*
Y606220D1*
X643984Y762711D1*
X716879D1*
X718976Y764808D1*
X487493Y677631D2*
X496411D1*
X606488Y787709D1*
X716286D1*
X718976Y790399D1*
X487493Y1077631D2*
Y1044189D1*
X637735Y893948D1*
X717790D1*
X718976Y892761D1*
X487493Y1277631D2*
X491526D1*
X612738Y1156420D1*
Y1012685D1*
X681480Y943942D1*
X718976D1*
X487493Y1177631D2*
Y1169176D1*
X587740Y1068929D1*
Y993937D1*
X668982Y912696D1*
X713320D1*
X718976Y918352D1*
D18*
X937703Y1275157D3*
D14*
X718976Y943942D3*
Y918352D3*
Y892761D3*
Y867171D3*
Y841580D3*
Y815990D3*
Y790399D3*
Y764808D3*
X947331D3*
X947323Y790399D3*
Y815990D3*
Y841580D3*
Y867171D3*
Y892761D3*
Y918352D3*
Y943942D3*
D15*
X800218Y1281407D3*
X875021D3*
X800218Y1081428D3*
X875021D3*
X800218Y1181417D3*
X875021D3*
X612738Y1287656D3*
X687541D3*
D16*
X487493Y1277631D3*
D17*
Y1177631D3*
Y1077631D3*
Y977631D3*
Y877631D3*
Y777631D3*
Y677631D3*
Y577631D3*
D16*
X1193927Y575231D3*
D17*
Y675231D3*
Y775231D3*
Y875231D3*
Y975231D3*
Y1075231D3*
Y1175231D3*
Y1275231D3*
M02*
