G04 DipTrace 3.1.0.1*
G04 MSP430FR2311Breakout.gto*
%MOIN*%
G04 #@! TF.FileFunction,Legend,Top*
G04 #@! TF.Part,Single*
%ADD10C,0.009843*%
%ADD32C,0.006176*%
%FSLAX26Y26*%
G04*
G70*
G90*
G75*
G01*
G04 TopSilk*
%LPD*%
X770168Y960675D2*
D10*
Y748075D1*
X896139Y960675D2*
Y748075D1*
X770168D2*
X896139D1*
X770168Y960675D2*
X813465D1*
X852842D2*
X896139D1*
X813465D2*
G03X852842Y960675I19689J23D01*
G01*
X758858Y1255836D2*
Y1306978D1*
Y1055857D2*
Y1106999D1*
Y1155846D2*
Y1206988D1*
X537495Y1327595D2*
X437493D1*
Y527668D1*
X537495D1*
Y1327595D1*
X1143925Y525268D2*
X1243927D1*
Y1325194D1*
X1143925D1*
Y525268D1*
X800183Y1019254D2*
D32*
Y990558D1*
X802084Y984810D1*
X805931Y981007D1*
X811679Y979062D1*
X815482D1*
X821230Y981007D1*
X825077Y984810D1*
X826978Y990558D1*
Y1019254D1*
X841275Y1009659D2*
Y1011560D1*
X843176Y1015407D1*
X845077Y1017308D1*
X848924Y1019209D1*
X856573D1*
X860376Y1017308D1*
X862277Y1015407D1*
X864223Y1011560D1*
Y1007758D1*
X862277Y1003911D1*
X858475Y998207D1*
X839329Y979062D1*
X866124D1*
X833110Y1359962D2*
X831209Y1363765D1*
X827362Y1367612D1*
X823559Y1369513D1*
X815910D1*
X812063Y1367612D1*
X808261Y1363765D1*
X806315Y1359962D1*
X804414Y1354214D1*
Y1344619D1*
X806315Y1338916D1*
X808261Y1335069D1*
X812063Y1331266D1*
X815910Y1329321D1*
X823559D1*
X827362Y1331266D1*
X831209Y1335069D1*
X833110Y1338916D1*
X845461Y1361819D2*
X849308Y1363765D1*
X855056Y1369469D1*
Y1329321D1*
X824510Y1159983D2*
X822609Y1163786D1*
X818762Y1167633D1*
X814959Y1169534D1*
X807310D1*
X803463Y1167633D1*
X799661Y1163786D1*
X797715Y1159983D1*
X795814Y1154235D1*
Y1144640D1*
X797715Y1138937D1*
X799661Y1135090D1*
X803463Y1131287D1*
X807310Y1129342D1*
X814959D1*
X818762Y1131287D1*
X822609Y1135090D1*
X824510Y1138937D1*
X838807Y1159939D2*
Y1161840D1*
X840708Y1165687D1*
X842609Y1167588D1*
X846456Y1169490D1*
X854105D1*
X857908Y1167588D1*
X859809Y1165687D1*
X861755Y1161840D1*
Y1158038D1*
X859809Y1154191D1*
X856007Y1148487D1*
X836861Y1129342D1*
X863656D1*
X824510Y1259973D2*
X822609Y1263775D1*
X818762Y1267622D1*
X814959Y1269523D1*
X807310D1*
X803463Y1267622D1*
X799661Y1263775D1*
X797715Y1259973D1*
X795814Y1254225D1*
Y1244630D1*
X797715Y1238926D1*
X799661Y1235079D1*
X803463Y1231277D1*
X807310Y1229331D1*
X814959D1*
X818762Y1231277D1*
X822609Y1235079D1*
X824510Y1238926D1*
X840708Y1269479D2*
X861710D1*
X850259Y1254181D1*
X856007D1*
X859809Y1252279D1*
X861710Y1250378D1*
X863656Y1244630D1*
Y1240827D1*
X861710Y1235079D1*
X857908Y1231233D1*
X852160Y1229331D1*
X846412D1*
X840708Y1231233D1*
X838807Y1233178D1*
X836861Y1236981D1*
X625769Y1356617D2*
X642969D1*
X648717Y1358562D1*
X650662Y1360464D1*
X652563Y1364266D1*
Y1368113D1*
X650662Y1371915D1*
X648717Y1373861D1*
X642969Y1375762D1*
X625769D1*
Y1335570D1*
X639166Y1356617D2*
X652563Y1335570D1*
X664915Y1368069D2*
X668762Y1370014D1*
X674510Y1375718D1*
Y1335570D1*
X504954Y1405107D2*
Y1374510D1*
X503052Y1368762D1*
X501107Y1366861D1*
X497304Y1364915D1*
X493458D1*
X489655Y1366861D1*
X487754Y1368762D1*
X485808Y1374510D1*
Y1378313D1*
X521152Y1405063D2*
X542154D1*
X530702Y1389765D1*
X536450D1*
X540253Y1387863D1*
X542154Y1385962D1*
X544100Y1380214D1*
Y1376411D1*
X542154Y1370663D1*
X538352Y1366817D1*
X532604Y1364915D1*
X526856D1*
X521152Y1366817D1*
X519251Y1368762D1*
X517305Y1372565D1*
X1155515Y1402707D2*
Y1372110D1*
X1153614Y1366362D1*
X1151668Y1364461D1*
X1147866Y1362515D1*
X1144019D1*
X1140216Y1364461D1*
X1138315Y1366362D1*
X1136370Y1372110D1*
Y1375912D1*
X1187012Y1362515D2*
Y1402663D1*
X1167866Y1375912D1*
X1196562D1*
M02*
