G04 DipTrace 3.1.0.1*
G04 MSP430FR2311Breakout.gbo*
%MOIN*%
G04 #@! TF.FileFunction,Legend,Bot*
G04 #@! TF.Part,Single*
%ADD33C,0.003088*%
%ADD34C,0.004632*%
%FSLAX26Y26*%
G04*
G70*
G90*
G75*
G01*
G04 BotSilk*
%LPD*%
X956074Y520769D2*
D33*
Y500673D1*
X962772Y520769D2*
X949375D1*
X931725Y514070D2*
Y500673D1*
Y511196D2*
X933626Y513120D1*
X935550Y514070D1*
X938402D1*
X940325Y513120D1*
X942226Y511196D1*
X943199Y508322D1*
Y506421D1*
X942226Y503547D1*
X940325Y501646D1*
X938402Y500673D1*
X935550D1*
X933626Y501646D1*
X931725Y503547D1*
X925550Y514070D2*
Y500673D1*
Y510246D2*
X922675Y513120D1*
X920752Y514070D1*
X917900D1*
X915977Y513120D1*
X915026Y510246D1*
Y500673D1*
X908850Y514070D2*
Y500673D1*
Y510246D2*
X905976Y513120D1*
X904053Y514070D1*
X901201D1*
X899278Y513120D1*
X898327Y510246D1*
Y500673D1*
X892151Y508322D2*
X880678D1*
Y510246D1*
X881628Y512169D1*
X882579Y513120D1*
X884502Y514070D1*
X887376D1*
X889277Y513120D1*
X891201Y511196D1*
X892151Y508322D1*
Y506421D1*
X891201Y503547D1*
X889277Y501646D1*
X887376Y500673D1*
X884502D1*
X882579Y501646D1*
X880678Y503547D1*
X874502Y514070D2*
Y500673D1*
Y508322D2*
X873529Y511196D1*
X871628Y513120D1*
X869704Y514070D1*
X866830D1*
X827817Y517895D2*
X829718Y519818D1*
X832592Y520769D1*
X836417D1*
X839291Y519818D1*
X841214Y517895D1*
Y515994D1*
X840242Y514070D1*
X839291Y513120D1*
X837390Y512169D1*
X831642Y510246D1*
X829718Y509295D1*
X828768Y508322D1*
X827817Y506421D1*
Y503547D1*
X829718Y501646D1*
X832592Y500673D1*
X836417D1*
X839291Y501646D1*
X841214Y503547D1*
X821641Y514070D2*
Y500673D1*
Y510246D2*
X818767Y513120D1*
X816844Y514070D1*
X813992D1*
X812069Y513120D1*
X811118Y510246D1*
Y500673D1*
Y510246D2*
X808244Y513120D1*
X806321Y514070D1*
X803469D1*
X801545Y513120D1*
X800573Y510246D1*
Y500673D1*
X794397Y520769D2*
X793446Y519818D1*
X792473Y520769D1*
X793446Y521742D1*
X794397Y520769D1*
X793446Y514070D2*
Y500673D1*
X783424Y520769D2*
Y504498D1*
X782473Y501646D1*
X780550Y500673D1*
X778648D1*
X786298Y514070D2*
X779599D1*
X772473Y520769D2*
Y500673D1*
Y510246D2*
X769599Y513120D1*
X767675Y514070D1*
X764801D1*
X762900Y513120D1*
X761949Y510246D1*
Y500673D1*
X1007819Y1369332D2*
Y1389428D1*
X1015469Y1369332D1*
X1023118Y1389428D1*
Y1369332D1*
X988246Y1386554D2*
X990148Y1388477D1*
X993022Y1389428D1*
X996846D1*
X999720Y1388477D1*
X1001644Y1386554D1*
Y1384653D1*
X1000671Y1382729D1*
X999720Y1381779D1*
X997819Y1380828D1*
X992071Y1378904D1*
X990148Y1377954D1*
X989197Y1376981D1*
X988246Y1375080D1*
Y1372206D1*
X990148Y1370305D1*
X993022Y1369332D1*
X996846D1*
X999720Y1370305D1*
X1001644Y1372206D1*
X982071Y1378904D2*
X973449D1*
X970597Y1379855D1*
X969624Y1380828D1*
X968673Y1382729D1*
Y1385603D1*
X969624Y1387504D1*
X970597Y1388477D1*
X973449Y1389428D1*
X982071D1*
Y1369332D1*
X952925D2*
Y1389406D1*
X962498Y1376030D1*
X948150D1*
X940051Y1389406D2*
X929549D1*
X935275Y1381756D1*
X932401D1*
X930500Y1380806D1*
X929549Y1379855D1*
X928577Y1376981D1*
Y1375080D1*
X929549Y1372206D1*
X931451Y1370282D1*
X934325Y1369332D1*
X937199D1*
X940051Y1370282D1*
X941001Y1371255D1*
X941974Y1373156D1*
X916653Y1389406D2*
X919527Y1388455D1*
X921450Y1385581D1*
X922401Y1380806D1*
Y1377932D1*
X921450Y1373156D1*
X919527Y1370282D1*
X916653Y1369332D1*
X914752D1*
X911878Y1370282D1*
X909976Y1373156D1*
X909004Y1377932D1*
Y1380806D1*
X909976Y1385581D1*
X911878Y1388455D1*
X914752Y1389406D1*
X916653D1*
X909976Y1385581D2*
X921450Y1373156D1*
X890381Y1389428D2*
X902828D1*
Y1369332D1*
Y1379855D2*
X895179D1*
X884205D2*
X875606D1*
X872731Y1380828D1*
X871759Y1381779D1*
X870808Y1383680D1*
Y1385603D1*
X871759Y1387504D1*
X872731Y1388477D1*
X875606Y1389428D1*
X884205D1*
Y1369332D1*
X877507Y1379855D2*
X870808Y1369332D1*
X863660Y1384630D2*
Y1385581D1*
X862709Y1387504D1*
X861758Y1388455D1*
X859835Y1389406D1*
X856010D1*
X854109Y1388455D1*
X853158Y1387504D1*
X852186Y1385581D1*
Y1383680D1*
X853158Y1381756D1*
X855060Y1378904D1*
X864632Y1369332D1*
X851235D1*
X843136Y1389406D2*
X832635D1*
X838361Y1381756D1*
X835487D1*
X833585Y1380806D1*
X832635Y1379855D1*
X831662Y1376981D1*
Y1375080D1*
X832635Y1372206D1*
X834536Y1370282D1*
X837410Y1369332D1*
X840284D1*
X843136Y1370282D1*
X844087Y1371255D1*
X845059Y1373156D1*
X825486Y1385581D2*
X823563Y1386554D1*
X820689Y1389406D1*
Y1369332D1*
X814513Y1385581D2*
X812590Y1386554D1*
X809716Y1389406D1*
Y1369332D1*
X784100Y1389428D2*
Y1369332D1*
X775478D1*
X772604Y1370305D1*
X771653Y1371255D1*
X770702Y1373156D1*
Y1376030D1*
X771653Y1377954D1*
X772604Y1378904D1*
X775478Y1379855D1*
X772604Y1380828D1*
X771653Y1381779D1*
X770702Y1383680D1*
Y1385603D1*
X771653Y1387504D1*
X772604Y1388477D1*
X775478Y1389428D1*
X784100D1*
Y1379855D2*
X775478D1*
X764527Y1382729D2*
Y1369332D1*
Y1376981D2*
X763554Y1379855D1*
X761653Y1381779D1*
X759729Y1382729D1*
X756855D1*
X750680Y1376981D2*
X739206D1*
Y1378904D1*
X740156Y1380828D1*
X741107Y1381779D1*
X743030Y1382729D1*
X745904D1*
X747806Y1381779D1*
X749729Y1379855D1*
X750680Y1376981D1*
Y1375080D1*
X749729Y1372206D1*
X747806Y1370305D1*
X745904Y1369332D1*
X743030D1*
X741107Y1370305D1*
X739206Y1372206D1*
X721556Y1382729D2*
Y1369332D1*
Y1379855D2*
X723457Y1381779D1*
X725381Y1382729D1*
X728233D1*
X730156Y1381779D1*
X732057Y1379855D1*
X733030Y1376981D1*
Y1375080D1*
X732057Y1372206D1*
X730156Y1370305D1*
X728233Y1369332D1*
X725381D1*
X723457Y1370305D1*
X721556Y1372206D1*
X715380Y1389428D2*
Y1369332D1*
X705808Y1382729D2*
X715380Y1373156D1*
X711556Y1376981D2*
X704857Y1369332D1*
X693906Y1382729D2*
X695807Y1381779D1*
X697731Y1379855D1*
X698681Y1376981D1*
Y1375080D1*
X697731Y1372206D1*
X695807Y1370305D1*
X693906Y1369332D1*
X691032D1*
X689109Y1370305D1*
X687207Y1372206D1*
X686235Y1375080D1*
Y1376981D1*
X687207Y1379855D1*
X689109Y1381779D1*
X691032Y1382729D1*
X693906D1*
X680059D2*
Y1373156D1*
X679108Y1370305D1*
X677185Y1369332D1*
X674311D1*
X672410Y1370305D1*
X669536Y1373156D1*
Y1382729D2*
Y1369332D1*
X660486Y1389428D2*
Y1373156D1*
X659535Y1370305D1*
X657612Y1369332D1*
X655711D1*
X663360Y1382729D2*
X656661D1*
X897628Y1329860D2*
X889028D1*
X886154Y1330833D1*
X885181Y1331784D1*
X884230Y1333685D1*
Y1335608D1*
X885181Y1337510D1*
X886154Y1338482D1*
X889028Y1339433D1*
X897628D1*
Y1319337D1*
X890929Y1329860D2*
X884230Y1319337D1*
X878055Y1326986D2*
X866581D1*
Y1328910D1*
X867531Y1330833D1*
X868482Y1331784D1*
X870405Y1332734D1*
X873279D1*
X875181Y1331784D1*
X877104Y1329860D1*
X878055Y1326986D1*
Y1325085D1*
X877104Y1322211D1*
X875181Y1320310D1*
X873279Y1319337D1*
X870405D1*
X868482Y1320310D1*
X866581Y1322211D1*
X860405Y1332734D2*
X854657Y1319337D1*
X848931Y1332734D1*
X823315Y1335586D2*
X821392Y1336559D1*
X818518Y1339411D1*
Y1319337D1*
X811391Y1321260D2*
X812342Y1320288D1*
X811391Y1319337D1*
X810419Y1320288D1*
X811391Y1321260D1*
X804243Y1335586D2*
X802320Y1336559D1*
X799445Y1339411D1*
Y1319337D1*
X627906Y1267945D2*
D34*
X614973D1*
X610695Y1269371D1*
X609236Y1270830D1*
X607810Y1273682D1*
Y1277993D1*
X609236Y1280845D1*
X610695Y1282304D1*
X614973Y1283730D1*
X627906D1*
Y1253586D1*
X598547Y1277960D2*
X595662Y1279419D1*
X591351Y1283697D1*
Y1253586D1*
X580661Y1256471D2*
X582087Y1255012D1*
X580661Y1253586D1*
X579202Y1255012D1*
X580661Y1256471D1*
X569938Y1277960D2*
X567053Y1279419D1*
X562742Y1283697D1*
Y1253586D1*
X640806Y1180455D2*
X627873D1*
X623595Y1181880D1*
X622136Y1183340D1*
X620710Y1186191D1*
Y1190503D1*
X622136Y1193354D1*
X623595Y1194814D1*
X627873Y1196239D1*
X640806D1*
Y1166095D1*
X611447Y1190469D2*
X608562Y1191928D1*
X604251Y1196206D1*
Y1166095D1*
X593561Y1168981D2*
X594987Y1167521D1*
X593561Y1166095D1*
X592102Y1167521D1*
X593561Y1168981D1*
X574216Y1196206D2*
X578527Y1194780D1*
X581412Y1190469D1*
X582838Y1183306D1*
Y1178995D1*
X581412Y1171832D1*
X578527Y1167521D1*
X574216Y1166095D1*
X571364D1*
X567053Y1167521D1*
X564202Y1171832D1*
X562742Y1178995D1*
Y1183306D1*
X564202Y1190469D1*
X567053Y1194780D1*
X571364Y1196206D1*
X574216D1*
X564202Y1190469D2*
X581412Y1171832D1*
X645051Y1096250D2*
Y1066106D1*
X655099Y1096250D2*
X635003D1*
X625739Y1077580D2*
X608528D1*
Y1080465D1*
X609954Y1083350D1*
X611380Y1084776D1*
X614265Y1086202D1*
X618576D1*
X621428Y1084776D1*
X624313Y1081891D1*
X625739Y1077580D1*
Y1074728D1*
X624313Y1070417D1*
X621428Y1067565D1*
X618576Y1066106D1*
X614265D1*
X611380Y1067565D1*
X608528Y1070417D1*
X583480Y1081891D2*
X584906Y1084776D1*
X589217Y1086202D1*
X593528D1*
X597839Y1084776D1*
X599265Y1081891D1*
X597839Y1079039D1*
X594954Y1077580D1*
X587791Y1076154D1*
X584906Y1074728D1*
X583480Y1071843D1*
Y1070417D1*
X584906Y1067565D1*
X589217Y1066106D1*
X593528D1*
X597839Y1067565D1*
X599265Y1070417D1*
X569905Y1096250D2*
Y1071843D1*
X568479Y1067565D1*
X565594Y1066106D1*
X562742D1*
X574216Y1086202D2*
X564168D1*
X641557Y975652D2*
X628658D1*
X624347Y977111D1*
X622887Y978537D1*
X621461Y981389D1*
Y984274D1*
X622887Y987126D1*
X624347Y988585D1*
X628658Y990011D1*
X641557D1*
Y959867D1*
X631509Y975652D2*
X621461Y959867D1*
X592102Y985700D2*
X594954Y988585D1*
X599265Y990011D1*
X605002D1*
X609313Y988585D1*
X612198Y985700D1*
Y982848D1*
X610739Y979963D1*
X609313Y978537D1*
X606461Y977111D1*
X597839Y974226D1*
X594954Y972800D1*
X593528Y971341D1*
X592102Y968489D1*
Y964178D1*
X594954Y961326D1*
X599265Y959867D1*
X605002D1*
X609313Y961326D1*
X612198Y964178D1*
X572790Y990011D2*
Y959867D1*
X582838Y990011D2*
X562742D1*
X641557Y997870D2*
X553479D1*
X647261Y890022D2*
X635787Y859878D1*
X624313Y890022D1*
X593528Y882859D2*
X594954Y885711D1*
X597839Y888596D1*
X600691Y890022D1*
X606428D1*
X609313Y888596D1*
X612165Y885711D1*
X613624Y882859D1*
X615050Y878548D1*
Y871352D1*
X613624Y867074D1*
X612165Y864189D1*
X609313Y861337D1*
X606428Y859878D1*
X600691D1*
X597839Y861337D1*
X594954Y864189D1*
X593528Y867074D1*
X562742Y882859D2*
X564168Y885711D1*
X567053Y888596D1*
X569905Y890022D1*
X575642D1*
X578527Y888596D1*
X581379Y885711D1*
X582838Y882859D1*
X584264Y878548D1*
Y871352D1*
X582838Y867074D1*
X581379Y864189D1*
X578527Y861337D1*
X575642Y859878D1*
X569905D1*
X567053Y861337D1*
X564168Y864189D1*
X562742Y867074D1*
X644409Y796281D2*
X632935Y766137D1*
X621461Y796281D1*
X592102Y791970D2*
X594954Y794856D1*
X599265Y796281D1*
X605002D1*
X609313Y794856D1*
X612198Y791970D1*
Y789119D1*
X610739Y786233D1*
X609313Y784808D1*
X606461Y783382D1*
X597839Y780496D1*
X594954Y779071D1*
X593528Y777611D1*
X592102Y774760D1*
Y770448D1*
X594954Y767597D1*
X599265Y766137D1*
X605002D1*
X609313Y767597D1*
X612198Y770448D1*
X562742Y791970D2*
X565594Y794856D1*
X569905Y796281D1*
X575642D1*
X579953Y794856D1*
X582838Y791970D1*
Y789119D1*
X581379Y786233D1*
X579953Y784808D1*
X577101Y783382D1*
X568479Y780496D1*
X565594Y779071D1*
X564168Y777611D1*
X562742Y774760D1*
Y770448D1*
X565594Y767597D1*
X569905Y766137D1*
X575642D1*
X579953Y767597D1*
X582838Y770448D1*
X653706Y680507D2*
X640773D1*
X636495Y681933D1*
X635036Y683392D1*
X633610Y686244D1*
Y690555D1*
X635036Y693407D1*
X636495Y694866D1*
X640773Y696292D1*
X653706D1*
Y666148D1*
X622887Y689096D2*
Y690522D1*
X621461Y693407D1*
X620036Y694833D1*
X617150Y696259D1*
X611413D1*
X608562Y694833D1*
X607136Y693407D1*
X605677Y690522D1*
Y687670D1*
X607136Y684785D1*
X609988Y680507D1*
X624347Y666148D1*
X604251D1*
X593561Y669033D2*
X594987Y667574D1*
X593561Y666148D1*
X592102Y667574D1*
X593561Y669033D1*
X577101Y666148D2*
X562742Y696259D1*
X582838D1*
X652247Y580517D2*
X639314D1*
X635036Y581943D1*
X633577Y583403D1*
X632151Y586254D1*
Y590565D1*
X633577Y593417D1*
X635036Y594877D1*
X639314Y596302D1*
X652247D1*
Y566158D1*
X621428Y589106D2*
Y590532D1*
X620002Y593417D1*
X618576Y594843D1*
X615691Y596269D1*
X609954D1*
X607102Y594843D1*
X605677Y593417D1*
X604217Y590532D1*
Y587680D1*
X605677Y584795D1*
X608528Y580517D1*
X622887Y566158D1*
X602791D1*
X592102Y569044D2*
X593528Y567584D1*
X592102Y566158D1*
X590643Y567584D1*
X592102Y569044D1*
X564168Y591991D2*
X565594Y594843D1*
X569905Y596269D1*
X572757D1*
X577068Y594843D1*
X579953Y590532D1*
X581379Y583369D1*
Y576206D1*
X579953Y570469D1*
X577068Y567584D1*
X572757Y566158D1*
X571331D1*
X567053Y567584D1*
X564168Y570469D1*
X562742Y574781D1*
Y576206D1*
X564168Y580517D1*
X567053Y583369D1*
X571331Y584795D1*
X572757D1*
X577068Y583369D1*
X579953Y580517D1*
X581379Y576206D1*
X1122006Y1261696D2*
X1109073D1*
X1104795Y1263122D1*
X1103336Y1264581D1*
X1101910Y1267433D1*
Y1271744D1*
X1103336Y1274596D1*
X1104795Y1276055D1*
X1109073Y1277481D1*
X1122006D1*
Y1247337D1*
X1092646Y1271711D2*
X1089761Y1273170D1*
X1085450Y1277448D1*
Y1247337D1*
X1074761Y1250222D2*
X1076186Y1248763D1*
X1074761Y1247337D1*
X1073301Y1248763D1*
X1074761Y1250222D1*
X1062579Y1270285D2*
Y1271711D1*
X1061153Y1274596D1*
X1059727Y1276022D1*
X1056842Y1277448D1*
X1051105D1*
X1048253Y1276022D1*
X1046827Y1274596D1*
X1045368Y1271711D1*
Y1268859D1*
X1046827Y1265974D1*
X1049679Y1261696D1*
X1064038Y1247337D1*
X1043942D1*
X1122006Y1167956D2*
X1109073D1*
X1104795Y1169382D1*
X1103336Y1170841D1*
X1101910Y1173693D1*
Y1178004D1*
X1103336Y1180856D1*
X1104795Y1182315D1*
X1109073Y1183741D1*
X1122006D1*
Y1153597D1*
X1092646Y1177971D2*
X1089761Y1179430D1*
X1085450Y1183708D1*
Y1153597D1*
X1074761Y1156482D2*
X1076186Y1155023D1*
X1074761Y1153597D1*
X1073301Y1155023D1*
X1074761Y1156482D1*
X1061153Y1183708D2*
X1045401D1*
X1053990Y1172234D1*
X1049679D1*
X1046827Y1170808D1*
X1045401Y1169382D1*
X1043942Y1165071D1*
Y1162219D1*
X1045401Y1157908D1*
X1048253Y1155023D1*
X1052564Y1153597D1*
X1056875D1*
X1061153Y1155023D1*
X1062579Y1156482D1*
X1064038Y1159334D1*
X1123432Y1074216D2*
X1110499D1*
X1106221Y1075642D1*
X1104762Y1077101D1*
X1103336Y1079953D1*
Y1084264D1*
X1104762Y1087116D1*
X1106221Y1088575D1*
X1110499Y1090001D1*
X1123432D1*
Y1059857D1*
X1094072Y1084230D2*
X1091187Y1085690D1*
X1086876Y1089967D1*
Y1059857D1*
X1076186Y1062742D2*
X1077612Y1061283D1*
X1076186Y1059857D1*
X1074727Y1061283D1*
X1076186Y1062742D1*
X1051105Y1059857D2*
Y1089967D1*
X1065464Y1069905D1*
X1043942D1*
X1122006Y980476D2*
X1109073D1*
X1104795Y981901D1*
X1103336Y983361D1*
X1101910Y986212D1*
Y990524D1*
X1103336Y993375D1*
X1104795Y994835D1*
X1109073Y996260D1*
X1122006D1*
Y966116D1*
X1092646Y990490D2*
X1089761Y991949D1*
X1085450Y996227D1*
Y966116D1*
X1074761Y969002D2*
X1076186Y967542D1*
X1074761Y966116D1*
X1073301Y967542D1*
X1074761Y969002D1*
X1046827Y996227D2*
X1061153D1*
X1062579Y983327D1*
X1061153Y984753D1*
X1056842Y986212D1*
X1052564D1*
X1048253Y984753D1*
X1045368Y981901D1*
X1043942Y977590D1*
Y974739D1*
X1045368Y970428D1*
X1048253Y967542D1*
X1052564Y966116D1*
X1056842D1*
X1061153Y967542D1*
X1062579Y969002D1*
X1064038Y971853D1*
X1124824Y890022D2*
Y859878D1*
X1134872Y890022D2*
X1114776D1*
X1105513Y875663D2*
X1092613D1*
X1088302Y877122D1*
X1086843Y878548D1*
X1085417Y881400D1*
Y884285D1*
X1086843Y887137D1*
X1088302Y888596D1*
X1092613Y890022D1*
X1105513D1*
Y859878D1*
X1095465Y875663D2*
X1085417Y859878D1*
X1076153Y890022D2*
Y859878D1*
X1058268Y890022D2*
X1061153Y888596D1*
X1064005Y885711D1*
X1065464Y882859D1*
X1066890Y878548D1*
Y871352D1*
X1065464Y867074D1*
X1064005Y864189D1*
X1061153Y861337D1*
X1058268Y859878D1*
X1052531D1*
X1049679Y861337D1*
X1046794Y864189D1*
X1045368Y867074D1*
X1043942Y871352D1*
Y878548D1*
X1045368Y882859D1*
X1046794Y885711D1*
X1049679Y888596D1*
X1052531Y890022D1*
X1058268D1*
X1120547Y780496D2*
X1107613D1*
X1103336Y781922D1*
X1101877Y783382D1*
X1100451Y786233D1*
Y790545D1*
X1101877Y793396D1*
X1103336Y794856D1*
X1107613Y796281D1*
X1120547D1*
Y766137D1*
X1091187Y790511D2*
X1088302Y791970D1*
X1083991Y796248D1*
Y766137D1*
X1073301Y769023D2*
X1074727Y767563D1*
X1073301Y766137D1*
X1071842Y767563D1*
X1073301Y769023D1*
X1045368Y791970D2*
X1046794Y794822D1*
X1051105Y796248D1*
X1053957D1*
X1058268Y794822D1*
X1061153Y790511D1*
X1062579Y783348D1*
Y776185D1*
X1061153Y770448D1*
X1058268Y767563D1*
X1053957Y766137D1*
X1052531D1*
X1048253Y767563D1*
X1045368Y770448D1*
X1043942Y774760D1*
Y776185D1*
X1045368Y780496D1*
X1048253Y783348D1*
X1052531Y784774D1*
X1053957D1*
X1058268Y783348D1*
X1061153Y780496D1*
X1062579Y776185D1*
X1128255Y674258D2*
X1115322D1*
X1111044Y675684D1*
X1109585Y677143D1*
X1108159Y679995D1*
Y684306D1*
X1109585Y687158D1*
X1111044Y688617D1*
X1115322Y690043D1*
X1128255D1*
Y659899D1*
X1098895Y684272D2*
X1096010Y685732D1*
X1091699Y690009D1*
Y659899D1*
X1081010Y662784D2*
X1082436Y661325D1*
X1081010Y659899D1*
X1079551Y661325D1*
X1081010Y662784D1*
X1064550Y659899D2*
X1050191Y690009D1*
X1070287D1*
X1141155Y568019D2*
X1128222D1*
X1123944Y569445D1*
X1122485Y570904D1*
X1121059Y573756D1*
Y578067D1*
X1122485Y580919D1*
X1123944Y582378D1*
X1128222Y583804D1*
X1141155D1*
Y553660D1*
X1110336Y576608D2*
Y578034D1*
X1108910Y580919D1*
X1107484Y582345D1*
X1104599Y583771D1*
X1098862D1*
X1096010Y582345D1*
X1094584Y580919D1*
X1093125Y578034D1*
Y575182D1*
X1094584Y572297D1*
X1097436Y568019D1*
X1111795Y553660D1*
X1091699D1*
X1081010Y556545D2*
X1082436Y555086D1*
X1081010Y553660D1*
X1079551Y555086D1*
X1081010Y556545D1*
X1061665Y583771D2*
X1065976Y582345D1*
X1068861Y578034D1*
X1070287Y570871D1*
Y566560D1*
X1068861Y559397D1*
X1065976Y555086D1*
X1061665Y553660D1*
X1058813D1*
X1054502Y555086D1*
X1051650Y559397D1*
X1050191Y566560D1*
Y570871D1*
X1051650Y578034D1*
X1054502Y582345D1*
X1058813Y583771D1*
X1061665D1*
X1051650Y578034D2*
X1068861Y559397D1*
X973200Y467451D2*
D33*
X964600D1*
X961726Y468424D1*
X960754Y469374D1*
X959803Y471276D1*
Y473199D1*
X960754Y475100D1*
X961726Y476073D1*
X964600Y477024D1*
X973200D1*
Y456928D1*
X966502Y467451D2*
X959803Y456928D1*
X953627Y470325D2*
Y460752D1*
X952677Y457900D1*
X950753Y456928D1*
X947879D1*
X945978Y457900D1*
X943104Y460752D1*
Y470325D2*
Y456928D1*
X926405Y467451D2*
X927355Y469374D1*
X930229Y470325D1*
X933104D1*
X935978Y469374D1*
X936928Y467451D1*
X935978Y465550D1*
X934054Y464577D1*
X929279Y463626D1*
X927355Y462676D1*
X926405Y460752D1*
Y459802D1*
X927355Y457900D1*
X930229Y456928D1*
X933104D1*
X935978Y457900D1*
X936928Y459802D1*
X909706Y467451D2*
X910656Y469374D1*
X913530Y470325D1*
X916404D1*
X919279Y469374D1*
X920229Y467451D1*
X919279Y465550D1*
X917355Y464577D1*
X912580Y463626D1*
X910656Y462676D1*
X909706Y460752D1*
Y459802D1*
X910656Y457900D1*
X913530Y456928D1*
X916404D1*
X919279Y457900D1*
X920229Y459802D1*
X903530Y464577D2*
X892056D1*
Y466500D1*
X893007Y468424D1*
X893957Y469374D1*
X895881Y470325D1*
X898755D1*
X900656Y469374D1*
X902579Y467451D1*
X903530Y464577D1*
Y462676D1*
X902579Y459802D1*
X900656Y457900D1*
X898755Y456928D1*
X895881D1*
X893957Y457900D1*
X892056Y459802D1*
X885880Y477024D2*
Y456928D1*
X879705Y477024D2*
Y456928D1*
X854089Y477024D2*
Y456928D1*
X845467D1*
X842593Y457900D1*
X841642Y458851D1*
X840691Y460752D1*
Y463626D1*
X841642Y465550D1*
X842593Y466500D1*
X845467Y467451D1*
X842593Y468424D1*
X841642Y469374D1*
X840691Y471276D1*
Y473199D1*
X841642Y475100D1*
X842593Y476073D1*
X845467Y477024D1*
X854089D1*
Y467451D2*
X845467D1*
X834516Y477024D2*
X833565Y476073D1*
X832592Y477024D1*
X833565Y477996D1*
X834516Y477024D1*
X833565Y470325D2*
Y456928D1*
X826417Y470325D2*
Y456928D1*
Y466500D2*
X823543Y469374D1*
X821619Y470325D1*
X818767D1*
X816844Y469374D1*
X815893Y466500D1*
Y456928D1*
X798244Y470325D2*
Y456928D1*
Y467451D2*
X800145Y469374D1*
X802068Y470325D1*
X804920D1*
X806844Y469374D1*
X808745Y467451D1*
X809718Y464577D1*
Y462676D1*
X808745Y459802D1*
X806844Y457900D1*
X804920Y456928D1*
X802068D1*
X800145Y457900D1*
X798244Y459802D1*
X780572Y467451D2*
X782495Y469374D1*
X784419Y470325D1*
X787271D1*
X789194Y469374D1*
X791095Y467451D1*
X792068Y464577D1*
Y462676D1*
X791095Y459802D1*
X789194Y457900D1*
X787271Y456928D1*
X784419D1*
X782495Y457900D1*
X780572Y459802D1*
X769621Y470325D2*
X771522Y469374D1*
X773445Y467451D1*
X774396Y464577D1*
Y462676D1*
X773445Y459802D1*
X771522Y457900D1*
X769621Y456928D1*
X766747D1*
X764823Y457900D1*
X762922Y459802D1*
X761949Y462676D1*
Y464577D1*
X762922Y467451D1*
X764823Y469374D1*
X766747Y470325D1*
X769621D1*
M02*
